<svg xmlns="http://www.w3.org/2000/svg" viewBox="0 0 1024 512" role="img" aria-labelledby="title desc">
  <title id="title">Thoth logo</title>
  <desc id="desc">A ledger-framed wordmark for Thoth with a central tally mark.</desc>
  <rect x="82" y="96" width="860" height="320" rx="10" fill="none" stroke="#bca66a" stroke-width="14"/>
  <rect x="114" y="128" width="796" height="256" rx="4" fill="#111515" opacity="0.96"/>
  <path d="M182 350h660" stroke="#4f573f" stroke-width="8" stroke-linecap="round"/>
  <path d="M512 144v224M480 172l64-28M480 228l64-28M480 284l64-28M480 340l64-28" stroke="#4f573f" stroke-width="12" stroke-linecap="round"/>
  <g fill="#e9ddb5">
    <rect x="182" y="178" width="100" height="20"/>
    <rect x="222" y="178" width="20" height="124"/>
    <rect x="326" y="178" width="20" height="124"/>
    <rect x="406" y="178" width="20" height="124"/>
    <rect x="326" y="230" width="100" height="20"/>
    <rect x="456" y="178" width="88" height="20"/>
    <rect x="456" y="282" width="88" height="20"/>
    <rect x="456" y="178" width="20" height="124"/>
    <rect x="524" y="178" width="20" height="124"/>
    <rect x="592" y="178" width="100" height="20"/>
    <rect x="632" y="178" width="20" height="124"/>
    <rect x="738" y="178" width="20" height="124"/>
    <rect x="818" y="178" width="20" height="124"/>
    <rect x="738" y="230" width="100" height="20"/>
  </g>
  <path d="M224 326h576" stroke="#8f9a75" stroke-width="4" stroke-linecap="round" stroke-dasharray="18 18"/>
</svg>
